<svg width="56" height="73" viewBox="0 0 56 73" fill="none" xmlns="http://www.w3.org/2000/svg">
<path d="M54.4173 20.9156C52.1161 27.6366 48.1539 33.7608 42.9939 38.5684C41.4392 40.017 39.7015 41.3876 37.6422 41.8735C36.9636 42.0324 36.2349 42.0924 35.577 41.8525C34.0193 41.2916 33.4174 39.3332 33.5 37.6567C33.5826 35.9772 34.1225 34.3157 33.9249 32.6481C33.8393 31.9254 33.6003 31.1966 33.1076 30.6657L33.1047 30.6627C32.9365 30.4828 32.7212 30.3478 32.4881 30.2788C31.5735 30.0089 30.5114 30.2458 29.5732 30.5548C27.8916 31.1066 26.263 31.8354 24.726 32.7231C22.8437 33.8118 21.0381 35.1644 18.9199 35.6263C18.1646 35.7912 17.3651 35.8332 16.6393 35.5663C15.1465 35.0205 14.3647 33.3229 14.1493 31.7244C13.751 28.7583 14.763 25.7801 16.0758 23.1019C18.9848 17.1696 23.4338 12.1251 28.4462 7.88734C32.6031 4.37236 37.3324 1.30126 42.6488 0.290549C44.5369 -0.0693464 46.5136 -0.156321 48.3605 0.386521C52.1486 1.4992 54.8304 5.18813 55.6564 9.10799C56.4855 13.0278 55.7125 17.1307 54.4173 20.9156Z" fill="#EE5A3C"/>
<path d="M27.3697 59.5988V60.9184C27.3785 60.9634 27.3844 61.0144 27.3815 61.0654C27.3785 61.1523 27.3756 61.2393 27.3726 61.3233C29.8744 64.1305 32.3704 66.9377 34.8722 69.7418C34.9813 69.7059 35.1052 69.6849 35.2439 69.6849C36.7102 69.6849 36.7072 72.0002 35.2439 72.0002C34.4326 72.0002 34.0697 71.2954 34.1582 70.6596C31.8777 68.1013 29.6001 65.5401 27.3195 62.9818C27.2517 65.1892 27.231 67.3935 27.2635 69.6009C28.0069 70.1737 27.7798 71.7003 26.5908 71.7003C25.2986 71.7003 25.1452 69.9128 26.1217 69.4809C26.0922 67.3216 26.107 65.1622 26.1748 63.0058C24.1893 65.3751 22.2569 67.7894 20.3894 70.2487C20.5634 70.9145 20.2094 71.7423 19.3332 71.7423C17.864 71.7423 17.8669 69.4269 19.3332 69.4269C19.4187 69.4269 19.4984 69.4359 19.5692 69.4509C21.717 66.6287 23.9356 63.8606 26.2309 61.1613C26.2309 61.1583 26.2338 61.1583 26.2338 61.1553V59.6108C7.8626 59.2179 3.16875 39.4207 5.11001 37.1563C5.50535 36.6945 6.0541 36.5835 6.67365 36.6975L6.63825 36.9044C6.63825 36.9044 9.68881 45.9618 14.3502 49.6387C18.5278 52.9317 25.4992 53.0337 26.9035 53.0187C28.3049 53.0337 35.2793 52.9317 39.4569 49.6387C44.1183 45.9618 47.219 36.7694 47.219 36.7694L47.2396 36.6885C47.5199 36.7514 47.7766 36.8984 47.9949 37.1563C49.9126 39.4027 45.322 58.855 27.3697 59.5988Z" fill="#353A68" stroke="#353A68" stroke-width="1.5438" stroke-miterlimit="10"/>
<path d="M26.7921 59.6223C26.7092 59.6223 26.6263 59.6223 26.5464 59.6194" stroke="#353A68" stroke-width="1.5438" stroke-miterlimit="10"/>
<path d="M6.67067 36.7032C7.86553 36.9192 9.3318 37.9659 10.5296 38.9916C11.6832 39.9813 13.471 39.1685 13.4887 37.636C13.5536 31.9796 9.03088 25.5975 4.57009 18.7535C-0.843624 10.4549 2.62292 2.68113 10.1726 5.72524C16.9258 8.44245 24.8914 8.6134 26.4993 8.6224C26.5288 8.6224 26.5613 8.6224 26.5937 8.6224C26.7206 8.6224 26.7885 8.6224 26.7885 8.6224" stroke="#353A68" stroke-width="1.5438" stroke-miterlimit="10"/>
<path d="M27.1491 53.0186C27.1491 53.0186 27.0603 53.0249 26.8975 53.0249" stroke="#353A68" stroke-width="1.5438" stroke-miterlimit="10"/>
<path d="M26.5472 59.6194C26.4673 59.6223 26.3844 59.6223 26.3015 59.6223" stroke="#353A68" stroke-width="1.5438" stroke-miterlimit="10"/>
<path d="M47.2307 36.694C46.1096 36.4391 44.5873 37.5368 43.3423 38.6975C42.2212 39.7442 40.4009 38.9974 40.3448 37.4528C40.1501 31.8445 44.0946 25.5463 48.5259 18.7533C53.9396 10.4517 50.473 2.68094 42.9233 5.72205C36.1731 8.43926 28.2045 8.61021 26.5966 8.61921C26.5612 8.61921 26.5317 8.61921 26.5022 8.61921C26.3754 8.61921 26.3075 8.61921 26.3075 8.61921" stroke="#353A68" stroke-width="1.5438" stroke-miterlimit="10"/>
<path d="M26.8983 53.0249C26.7355 53.0249 26.6467 53.0186 26.6467 53.0186" stroke="#353A68" stroke-width="1.5438" stroke-miterlimit="10"/>
<path d="M11.45 7.71948L11.2198 24.3886L10.9927 7.71948H11.45Z" fill="#353A68"/>
<path d="M5.396 15.853L16.7515 16.084L5.396 16.3179V15.853Z" fill="#353A68"/>
<path d="M14.7866 10.9614C12.5356 14.3474 10.3967 17.8144 8.37573 21.3534C10.2639 17.7394 12.276 14.1885 14.4031 10.7095L14.7866 10.9614Z" fill="#353A68"/>
<path d="M7.63524 11.2703C10.1607 14.4403 12.6094 17.6764 14.9755 20.9694C12.4884 17.7694 9.92464 14.6353 7.28711 11.5672L7.63524 11.2703Z" fill="#353A68"/>
<path d="M5.75585 26.5L5.52868 35.1225L5.30151 26.5H5.75585Z" fill="#353A68"/>
<path d="M0.593018 30.5579L9.07795 30.7888L0.593018 31.0197V30.5579Z" fill="#353A68"/>
<path d="M7.89767 27.7176L3.20972 34.4807L7.51709 27.4597L7.89767 27.7176Z" fill="#353A68"/>
<path d="M2.8204 27.5015C4.67316 29.5709 6.47281 31.6883 8.21346 33.8536C6.35775 31.7902 4.44894 29.7808 2.49292 27.8224L2.8204 27.5015Z" fill="#353A68"/>
<path d="M5.26602 15.0945C4.09477 15.0945 4.09182 16.9479 5.26602 16.9479C6.43727 16.9449 6.44022 15.0945 5.26602 15.0945Z" fill="#353A68"/>
<path d="M11.1845 6.82568C10.0132 6.82568 10.0103 8.67915 11.1845 8.67915C12.3587 8.67615 12.3587 6.82568 11.1845 6.82568Z" fill="#353A68"/>
<path d="M16.8517 15.2231C15.6805 15.2231 15.6775 17.0766 16.8517 17.0766C18.023 17.0736 18.0259 15.2231 16.8517 15.2231Z" fill="#353A68"/>
<path d="M11.3112 23.2339C10.1399 23.2339 10.137 25.0873 11.3112 25.0873C12.4824 25.0873 12.4854 23.2339 11.3112 23.2339Z" fill="#353A68"/>
<path d="M42.7107 13.0967L42.4835 23.7466L42.2563 13.0967H42.7107Z" fill="#353A68"/>
<path d="M40.6278 15.886C42.1589 17.5655 43.6311 19.296 45.0472 21.0715C43.519 19.398 41.9347 17.7754 40.3032 16.2099L40.6278 15.886Z" fill="#353A68"/>
<path d="M44.3479 15.835C43.0379 17.5925 41.7782 19.389 40.5715 21.2275C41.6484 19.308 42.7842 17.4216 43.9761 15.5681L44.3479 15.835Z" fill="#353A68"/>
<path d="M40.3298 18.0784L44.7936 18.3093L40.3298 18.5402V18.0784Z" fill="#353A68"/>
<path d="M40.9642 20.4656C40.2325 20.4656 40.2295 21.6232 40.9642 21.6232C41.6958 21.6232 41.6988 20.4656 40.9642 20.4656Z" fill="#353A68"/>
<path d="M44.1917 15.0583C43.46 15.0583 43.4571 16.216 44.1917 16.216C44.9263 16.216 44.9263 15.0583 44.1917 15.0583Z" fill="#353A68"/>
<path d="M42.5778 12.647C41.8461 12.647 41.8432 13.8046 42.5778 13.8046C43.3095 13.8046 43.3124 12.647 42.5778 12.647Z" fill="#353A68"/>
<path d="M3.52568 33.7188C2.79402 33.7188 2.79107 34.8764 3.52568 34.8764C4.25735 34.8764 4.2603 33.7188 3.52568 33.7188Z" fill="#353A68"/>
<path d="M5.51983 34.5854C4.78816 34.5854 4.78521 35.7431 5.51983 35.7431C6.25149 35.7431 6.25149 34.5854 5.51983 34.5854Z" fill="#353A68"/>
<path d="M8.08379 33.4277C7.35213 33.4277 7.34918 34.5854 8.08379 34.5854C8.81545 34.5854 8.81545 33.4277 8.08379 33.4277Z" fill="#353A68"/>
<path d="M7.70317 26.8657C6.97151 26.8657 6.96856 28.0234 7.70317 28.0234C8.43484 28.0204 8.43779 26.8657 7.70317 26.8657Z" fill="#353A68"/>
<path d="M2.9561 27.3457C2.22444 27.3457 2.22149 28.5034 2.9561 28.5034C3.68777 28.5034 3.68777 27.3457 2.9561 27.3457Z" fill="#353A68"/>
<path d="M5.2603 22.6369C4.7263 22.6459 2.77324 22.8528 2.63163 25.5461V25.855C2.63163 25.783 2.62867 25.714 2.62867 25.648C2.62867 25.714 2.62572 25.783 2.62572 25.855V25.5461C2.48706 22.8588 0.536946 22.6429 0 22.6369C2.09763 22.5409 2.56672 20.2376 2.62572 19.8717V19.8237C2.62572 19.8237 2.62867 19.8327 2.62867 19.8447C2.63162 19.8327 2.63163 19.8237 2.63163 19.8237V19.8717C2.69358 20.2376 3.16267 22.5439 5.2603 22.6369Z" fill="#353A68"/>
<path d="M12.6477 35.7583C12.2878 35.7643 10.9601 35.9052 10.8657 37.7317V37.9416C10.8657 37.8937 10.8657 37.8457 10.8628 37.8007C10.8628 37.8457 10.8598 37.8937 10.8598 37.9416V37.7317C10.7654 35.9112 9.44371 35.7643 9.07788 35.7583C10.4999 35.6923 10.8185 34.1327 10.8598 33.8838V33.8508C10.8598 33.8508 10.8598 33.8568 10.8628 33.8658C10.8628 33.8568 10.8657 33.8508 10.8657 33.8508V33.8838C10.9041 34.1327 11.2227 35.6953 12.6477 35.7583Z" fill="#353A68"/>
<path d="M49.0569 30.4528C48.5229 30.4618 46.5699 30.6688 46.4283 33.362V33.6709C46.4283 33.5989 46.4253 33.5299 46.4253 33.464C46.4224 33.5299 46.4224 33.5989 46.4224 33.6709V33.362C46.2837 30.6748 44.3336 30.4588 43.7966 30.4528C45.8943 30.3569 46.3634 28.0535 46.4224 27.6876V27.6396C46.4224 27.6396 46.4253 27.6486 46.4253 27.6606C46.4283 27.6486 46.4283 27.6396 46.4283 27.6396V27.6876C46.4902 28.0535 46.9564 30.3599 49.0569 30.4528Z" fill="#353A68"/>
<path d="M49.9919 25.1445C49.632 25.1505 48.3044 25.2915 48.21 27.1179V27.3279C48.21 27.2799 48.21 27.2319 48.207 27.1869C48.207 27.2319 48.2041 27.2799 48.2041 27.3279V27.1179C48.1097 25.2975 46.788 25.1505 46.4221 25.1445C47.8441 25.0785 48.1628 23.519 48.2041 23.2701V23.2371C48.2041 23.2371 48.2041 23.2431 48.207 23.2521C48.207 23.2431 48.21 23.2371 48.21 23.2371V23.2701C48.2513 23.516 48.5699 25.0785 49.9919 25.1445Z" fill="#353A68"/>
</svg>
