<svg width="22" height="22" viewBox="0 0 22 22" fill="none" xmlns="http://www.w3.org/2000/svg">
<path d="M9.18177 1C7.56357 1 5.98171 1.47985 4.63622 2.37887C3.29074 3.27789 2.24206 4.55571 1.6228 6.05073C1.00354 7.54574 0.841519 9.19082 1.15721 10.7779C1.47291 12.365 2.25215 13.8229 3.39639 14.9671C4.54063 16.1113 5.99848 16.8906 7.58558 17.2063C9.17269 17.522 10.8178 17.3599 12.3128 16.7407C13.8078 16.1214 15.0856 15.0728 15.9847 13.7273C16.8837 12.3818 17.3635 10.7999 17.3635 9.18174C17.3634 7.01185 16.5013 4.93087 14.967 3.39653C13.4326 1.86219 11.3517 1.00014 9.18177 1Z" stroke="#1B2937" stroke-width="2" stroke-miterlimit="10"/>
<path d="M15.2859 15.2859L21 20.9999" stroke="#1B2937" stroke-width="2" stroke-miterlimit="10" stroke-linecap="round"/>
</svg>
