<svg width="22" height="22" viewBox="0 0 22 22" fill="none" xmlns="http://www.w3.org/2000/svg">
<path d="M7.42804 21.0001C7.87182 21.0001 8.23157 20.593 8.23157 20.091C8.23157 19.5889 7.87182 19.1819 7.42804 19.1819C6.98426 19.1819 6.62451 19.5889 6.62451 20.091C6.62451 20.593 6.98426 21.0001 7.42804 21.0001Z" stroke="#1B2937" stroke-width="2" stroke-linecap="round" stroke-linejoin="round"/>
<path d="M18.6777 21.0001C19.1214 21.0001 19.4812 20.593 19.4812 20.091C19.4812 19.5889 19.1214 19.1819 18.6777 19.1819C18.2339 19.1819 17.8741 19.5889 17.8741 20.091C17.8741 20.593 18.2339 21.0001 18.6777 21.0001Z" stroke="#1B2937" stroke-width="2" stroke-linecap="round" stroke-linejoin="round"/>
<path d="M1 1H4.2141L6.62468 16.4545H19.4811" stroke="#1B2937" stroke-width="2" stroke-linecap="round" stroke-linejoin="round"/>
<path d="M6.62463 12.8182H19.1516C19.2445 12.8182 19.3346 12.7819 19.4065 12.7153C19.4784 12.6486 19.5276 12.5559 19.5458 12.4528L20.9922 4.27104C21.0039 4.20507 21.0024 4.13699 20.988 4.07171C20.9736 4.00643 20.9466 3.94559 20.9089 3.89356C20.8711 3.84154 20.8237 3.79964 20.7699 3.77089C20.7162 3.74214 20.6574 3.72725 20.598 3.7273H5.01758" stroke="#1B2937" stroke-width="2" stroke-linecap="round" stroke-linejoin="round"/>
</svg>
