<svg width="448" height="446" viewBox="0 0 448 446" fill="none" xmlns="http://www.w3.org/2000/svg">
<path d="M281.301 441.254C370.982 427.842 427.836 344.253 445.052 304.135C457.729 271.562 426.466 260.225 409.25 258.628C194.437 235.875 118.137 102.348 91.726 67.0205C70.5969 38.7584 49.2716 55.2446 41.2501 67.0205C-30.1036 171.769 6.11982 296.351 38.3155 344.852C108.277 450.236 229.456 453.03 281.301 441.254Z" fill="#FBEAE9"/>
<path d="M417.455 165.008C417.455 175.904 408.606 184.737 397.69 184.737C386.774 184.737 377.925 175.904 377.925 165.008C377.925 154.112 397.69 123.158 397.69 123.158C397.69 123.158 417.455 154.112 417.455 165.008Z" fill="#FFFCE5"/>
<path d="M153.326 29.2543C153.326 36.871 147.159 43.0456 139.551 43.0456C131.943 43.0456 125.775 36.871 125.775 29.2543C125.775 21.6375 139.551 0 139.551 0C139.551 0 153.326 21.6375 153.326 29.2543Z" fill="#FFFCE5"/>
</svg>
